<svg width="151" height="151" viewBox="0 0 151 151" fill="none" xmlns="http://www.w3.org/2000/svg">
<g clip-path="url(#clip0_88_2)">
<rect width="151" height="151" fill="#0F0F0F"/>
<path d="M53.1848 39H97.9848V51.6H66.3848V67.6H97.3848V80.2H66.3848V109H53.1848V39Z" fill="#5297FF"/>
<path d="M39.7521 13.6961C39.3367 12.6726 39.8297 11.5062 40.8532 11.0908L63.7756 1.78837C64.8334 1.35911 66.0353 1.90081 66.4142 2.97762L78.5869 37.5651C79.0378 38.8461 78.1081 40.1944 76.7505 40.2284L52.1668 40.8447C51.3346 40.8655 50.5765 40.3687 50.2634 39.5974L39.7521 13.6961Z" fill="#0F0F0F"/>
<path d="M54.3929 44.2523C56.2783 44.342 62.7225 46.131 64.1721 45.4493C65.6218 44.7676 64.7969 36.4355 64.814 31.9672" stroke="#5297FF" stroke-width="2"/>
<path d="M63.732 20L63 21H66L65.1649 20H63.732Z" stroke="white" stroke-width="0.5"/>
<path d="M61.3112 27.958H59.843C58.6579 27.958 58.7817 29 59.843 29H70.2968C71.252 29 71.2166 27.958 70.2968 27.958H68.8641M61.3112 27.958V23C61.3112 21.8954 62.2066 21 63.3112 21H66.8641C67.9686 21 68.8641 21.8954 68.8641 23V27.958M61.3112 27.958H68.8641" stroke="white" stroke-width="0.5"/>
<path d="M64 20V20C64 19.4619 64.4362 19.0256 64.9744 19.0256H65C65.5523 19.0256 66 18.5779 66 18.0256V18" stroke="white" stroke-width="0.5"/>
<path d="M63.4639 32L62 29H68L66.3299 32H63.4639Z" stroke="white" stroke-width="0.5"/>
</g>
<defs>
<clipPath id="clip0_88_2">
<rect width="151" height="151" fill="white"/>
</clipPath>
</defs>
</svg>
